<?xml version="1.0" standalone="no"?><!DOCTYPE svg PUBLIC "-//W3C//DTD SVG 1.1//EN" "http://www.w3.org/Graphics/SVG/1.1/DTD/svg11.dtd"><svg t="1616142205462" class="icon" viewBox="0 0 1024 1024" version="1.1" xmlns="http://www.w3.org/2000/svg" p-id="2013" width="32" height="32" xmlns:xlink="http://www.w3.org/1999/xlink"><defs><style type="text/css"></style></defs><path d="M932.256 5.344H91.744a86.72 86.72 0 0 0-86.4 86.4V931.2c0 48 39.456 86.4 86.4 86.4H931.2c48 0 86.4-39.456 86.4-86.4V91.744c1.056-46.944-38.4-86.4-85.344-86.4z m-617.6 134.4c41.6 0 75.744 34.112 75.744 75.712S356.256 291.2 314.656 291.2a76.032 76.032 0 0 1-75.712-75.744c0-41.6 34.112-75.712 75.712-75.712z m116.288 432l-39.488 14.912c-5.312 2.144-8.512 6.4-8.512 11.744l-20.288 260.256c-1.056 13.888-12.8 25.6-27.712 25.6H291.2c-13.856 0-25.6-10.656-27.744-25.6L245.344 598.4c0-5.344-4.288-9.6-8.544-11.744l-38.4-14.912A26.624 26.624 0 0 1 181.344 544l16-154.656a81.984 81.984 0 0 1 81.056-73.6h71.456c41.6 0 76.8 32 81.088 73.6l17.056 153.6c1.056 12.8-6.4 23.456-17.056 28.8z m411.712 14.912l-123.712 202.688c-9.6 16-33.088 16-43.744 0l-122.656-202.688c-10.688-17.056 2.112-38.4 21.312-38.4h247.488c19.2 0 32 21.344 21.312 38.4z m-21.312-110.912h-246.4c-20.288 0-32-21.344-21.344-38.4l123.744-202.688c9.6-16 33.056-16 43.712 0l121.6 202.688c10.688 17.056-2.112 38.4-21.312 38.4z" p-id="2014"></path></svg>