<?xml version="1.0" standalone="no"?><!DOCTYPE svg PUBLIC "-//W3C//DTD SVG 1.1//EN" "http://www.w3.org/Graphics/SVG/1.1/DTD/svg11.dtd"><svg t="1616140402690" class="icon" viewBox="0 0 1024 1024" version="1.1" xmlns="http://www.w3.org/2000/svg" p-id="983" width="32" height="32" xmlns:xlink="http://www.w3.org/1999/xlink"><defs><style type="text/css"></style></defs><path d="M896 199.29088l0 51.2L677.55008 250.49088l0 185.07776-184.32 0 0 204.82048L302.08 640.38912l0 184.32-174.08 0 0-51.2 122.88 0 0-184.32 191.15008 0L442.03008 384.36864l184.32 0L626.35008 199.29088 896 199.29088zM246.66112 457.32864l140.21632-18.3296c2.048-0.256 3.64544-1.86368 3.93216-3.90144 0.28672-2.03776-0.8192-4.01408-2.70336-4.84352l-56.29952-24.41216 93.41952-93.40928c1.78176-1.80224 1.792-4.68992 0-6.48192l-32.33792-32.33792c-1.78176-1.792-4.67968-1.78176-6.47168 0l-93.41952 93.41952-24.41216-56.28928c-0.8192-1.88416-2.79552-3.00032-4.83328-2.7136-1.024 0.1536-1.92512 0.62464-2.60096 1.30048-0.68608 0.68608-1.15712 1.60768-1.30048 2.64192l-18.3296 140.21632c-0.18432 1.41312 0.28672 2.816 1.30048 3.82976C243.83488 457.02144 245.248 457.51296 246.66112 457.32864z" p-id="984" fill="#515151"></path></svg>